<mxfile host="app.diagrams.net" agent="Mozilla/5.0 (Macintosh; Intel Mac OS X 10_15_7) AppleWebKit/537.36 (KHTML, like Gecko) Chrome/126.0.0.0 Safari/537.36" modified="2024-07-27T03:34:07.404Z" version="24.6.1" etag="p91VqZ1JBhSS70ryUFC4" type="github">
  <diagram name="代码评审架构流程图" id="BxFMLwCdM_yC76DfMntS">
    <mxGraphModel dx="586" dy="315" grid="1" gridSize="10" guides="1" tooltips="1" connect="1" arrows="1" fold="1" page="1" pageScale="1" pageWidth="827" pageHeight="1169" math="0" shadow="0">
      <root>
        <mxCell id="0" />
        <mxCell id="1" parent="0" />
      </root>
    </mxGraphModel>
  </diagram>
</mxfile>
